   <svg width="1126" height="200" viewBox="0 0 1126 200" fill="none" xmlns="http://www.w3.org/2000/svg">
            <g clip-path="url(#clip0_242_86)">
                <path d="M68.5 80H199.333C200.833 80 201.833 79 201.833 77.5V2.5C201.833 1 202.833 0 204.333 0H246.833C248.333 0 249.333 1 249.333 2.5V197.5C249.333 199 248.333 200 246.833 200H204.333C202.833 200 201.833 199 201.833 197.5V132.25C201.833 118.75 194.333 111.25 180.833 111.25H50C48.5 111.25 47.5 112.25 47.5 113.75V197.5C47.5 199 46.5 200 45 200H2.5C1 200 0 199 0 197.5V2.5C0 1 1 0 2.5 0H45C46.5 0 47.5 1 47.5 2.5V59C47.5 72.5 55 80 68.5 80Z" fill="white" />
                <path d="M324.333 0H281.833C280.453 0 279.333 1.11929 279.333 2.5V197.5C279.333 198.881 280.453 200 281.833 200H324.333C325.714 200 326.834 198.881 326.834 197.5V2.5C326.834 1.11929 325.714 0 324.333 0Z" fill="white" />
                <path d="M356.833 2.5V197.5C356.833 199 357.833 200 359.333 200H574.917C576.417 200 577.417 199 577.417 197.5V171.25C577.417 169.75 576.417 168.75 574.917 168.75H406.833C405.333 168.75 404.333 167.75 404.333 166.25V2.5C404.333 1 403.334 0 401.834 0H359.333C357.833 0 356.833 1 356.833 2.5Z" fill="white" />
                <path d="M639.917 0H597.417C596.036 0 594.917 1.11929 594.917 2.5V197.5C594.917 198.881 596.036 200 597.417 200H639.917C641.297 200 642.416 198.881 642.416 197.5V2.5C642.416 1.11929 641.297 0 639.917 0Z" fill="white" />
                <path d="M887.416 0H662.416C660.916 0 659.917 1 659.917 2.5V28.75C659.917 30.25 660.916 31.25 662.416 31.25H748.666C750.166 31.25 751.166 32.25 751.166 33.75V197.5C751.166 199 752.167 200 753.667 200H796.166C797.666 200 798.666 199 798.666 197.5V33.75C798.666 32.25 799.666 31.25 801.166 31.25H887.416C888.916 31.25 889.916 30.25 889.916 28.75V2.5C889.916 1 888.916 0 887.416 0Z" fill="white" />
                <path d="M907.417 2.5V197.5C907.417 199 908.417 200 909.917 200H1123C1124.5 200 1125.5 199 1125.5 197.5V171.25C1125.5 169.75 1124.5 168.75 1123 168.75H957.417C955.917 168.75 954.916 167.75 954.916 166.25V113.75C954.916 112.25 955.917 111.25 957.417 111.25H1090.5C1092 111.25 1093 110.25 1093 108.75V82.5C1093 81 1092 80 1090.5 80H957.417C955.917 80 954.916 79 954.916 77.5V33.75C954.916 32.25 955.917 31.25 957.417 31.25H1118C1119.5 31.25 1120.5 30.25 1120.5 28.75V2.5C1120.5 1 1119.5 0 1118 0H909.917C908.417 0 907.417 1 907.417 2.5Z" fill="white" />
            </g>
            <defs>
                <clipPath id="clip0_242_86">
                    <rect width="1125.5" height="200" fill="white" />
                </clipPath>
            </defs>
        </svg>