<svg width="282" height="50" viewBox="0 0 282 50" fill="none" xmlns="http://www.w3.org/2000/svg">
<g clip-path="url(#clip0_265_7)">
<path d="M17.125 20H49.8333C50.2083 20 50.4583 19.75 50.4583 19.375V0.625C50.4583 0.25 50.7083 0 51.0833 0H61.7083C62.0833 0 62.3333 0.25 62.3333 0.625V49.375C62.3333 49.75 62.0833 50 61.7083 50H51.0833C50.7083 50 50.4583 49.75 50.4583 49.375V33.0625C50.4583 29.6875 48.5833 27.8125 45.2083 27.8125H12.5C12.125 27.8125 11.875 28.0625 11.875 28.4375V49.375C11.875 49.75 11.625 50 11.25 50H0.625C0.25 50 0 49.75 0 49.375V0.625C0 0.25 0.25 0 0.625 0H11.25C11.625 0 11.875 0.25 11.875 0.625V14.75C11.875 18.125 13.75 20 17.125 20Z" fill="#FFB4EA"/>
<path d="M81.0833 0H70.4583C70.1131 0 69.8333 0.279822 69.8333 0.625V49.375C69.8333 49.7202 70.1131 50 70.4583 50H81.0833C81.4285 50 81.7083 49.7202 81.7083 49.375V0.625C81.7083 0.279822 81.4285 0 81.0833 0Z" fill="#FFB4EA"/>
<path d="M89.2083 0.625V49.375C89.2083 49.75 89.4583 50 89.8333 50H143.729C144.104 50 144.354 49.75 144.354 49.375V42.8125C144.354 42.4375 144.104 42.1875 143.729 42.1875H101.708C101.333 42.1875 101.083 41.9375 101.083 41.5625V0.625C101.083 0.25 100.833 0 100.458 0H89.8333C89.4583 0 89.2083 0.25 89.2083 0.625Z" fill="#FFB4EA"/>
<path d="M159.979 0H149.354C149.009 0 148.729 0.279822 148.729 0.625V49.375C148.729 49.7202 149.009 50 149.354 50H159.979C160.324 50 160.604 49.7202 160.604 49.375V0.625C160.604 0.279822 160.324 0 159.979 0Z" fill="#FFB4EA"/>
<path d="M221.854 0H165.604C165.229 0 164.979 0.25 164.979 0.625V7.1875C164.979 7.5625 165.229 7.8125 165.604 7.8125H187.167C187.542 7.8125 187.792 8.0625 187.792 8.4375V49.375C187.792 49.75 188.042 50 188.417 50H199.042C199.417 50 199.667 49.75 199.667 49.375V8.4375C199.667 8.0625 199.917 7.8125 200.292 7.8125H221.854C222.229 7.8125 222.479 7.5625 222.479 7.1875V0.625C222.479 0.25 222.229 0 221.854 0Z" fill="#FFB4EA"/>
<path d="M226.854 0.625V49.375C226.854 49.75 227.104 50 227.479 50H280.75C281.125 50 281.375 49.75 281.375 49.375V42.8125C281.375 42.4375 281.125 42.1875 280.75 42.1875H239.354C238.979 42.1875 238.729 41.9375 238.729 41.5625V28.4375C238.729 28.0625 238.979 27.8125 239.354 27.8125H272.625C273 27.8125 273.25 27.5625 273.25 27.1875V20.625C273.25 20.25 273 20 272.625 20H239.354C238.979 20 238.729 19.75 238.729 19.375V8.4375C238.729 8.0625 238.979 7.8125 239.354 7.8125H279.5C279.875 7.8125 280.125 7.5625 280.125 7.1875V0.625C280.125 0.25 279.875 0 279.5 0H227.479C227.104 0 226.854 0.25 226.854 0.625Z" fill="#FFB4EA"/>
</g>
<defs>
<clipPath id="clip0_265_7">
<rect width="281.375" height="50" fill="white"/>
</clipPath>
</defs>
</svg>
